<svg width="223" height="267" viewBox="0 0 223 267" fill="none" xmlns="http://www.w3.org/2000/svg">
<g clip-path="url(#clip0_23_80)">
<path d="M222.813 72.0237C222.813 69.4975 221.345 67.3168 219.216 66.2879C218.384 65.8856 217.451 65.6615 216.464 65.6615H182.43V78.3859H216.464C219.971 78.3859 222.813 75.5382 222.813 72.0237Z" fill="#BCBCBC"/>
<path d="M6.34859 78.3859H43.8058L48.5356 78.3896H50.1544H51.7732H56.503L59.7387 78.3932H64.2815V78.3859H81.5179V65.6615H59.6654H56.503H51.7732L50.1544 65.6596H48.5356L43.8058 65.6578H40.5701H40.5646H38.2694V65.6651H6.34859C2.84156 65.6651 0 68.5128 0 72.0273C0 75.5419 2.84156 78.3896 6.34859 78.3896V78.3859Z" fill="#BCBCBC"/>
<path d="M3.78388 107.167C3.78388 107.167 3.78021 107.169 3.77654 107.171C3.60788 107.254 3.44289 107.342 3.2834 107.439C3.23206 107.471 3.18073 107.504 3.1294 107.535C2.85625 107.709 2.59776 107.902 2.35576 108.115C2.2531 108.205 2.15227 108.297 2.05511 108.395C2.05144 108.398 2.04778 108.402 2.04411 108.406C2.04044 108.409 2.03678 108.413 2.03311 108.417C1.90478 108.547 1.78195 108.681 1.66462 108.823C1.40247 109.135 1.17148 109.473 0.973484 109.833C0.964318 109.852 0.953318 109.868 0.944152 109.886C0.46017 110.785 0.185181 111.814 0.185181 112.907C0.185181 114.876 1.07798 116.635 2.47859 117.801C2.50059 117.82 2.52442 117.838 2.54642 117.856C3.63722 118.738 5.02316 119.269 6.53377 119.269H40.5701V106.545H6.53561C5.54931 106.545 4.61618 106.771 3.78388 107.171V107.167Z" fill="#BCBCBC"/>
<path d="M81.5197 106.539H59.7405V111.281V112.901V114.524V119.264H79.7103V119.293H81.5197H82.011L84.7554 119.295L89.4871 119.297H91.104H92.7228L97.4526 119.298L100.69 119.3H101.202L105.73 119.302V119.264H122.469V114.524V112.901V111.281V106.539H101.202V106.569H100.69L97.4526 106.567L92.7228 106.565H91.104L89.4871 106.563L84.7554 106.561H82.011H81.5197V106.539Z" fill="#BCBCBC"/>
<path d="M220.829 149.151C220.73 149.065 220.63 148.982 220.527 148.901C220.329 148.747 220.12 148.605 219.904 148.475C218.952 147.905 217.841 147.577 216.651 147.577H182.43V160.301H216.651C218.173 160.301 219.568 159.765 220.661 158.872C220.675 158.859 220.692 158.848 220.707 158.835C222.107 157.668 223 155.908 223 153.941C223 151.973 222.159 150.32 220.829 149.153V149.151Z" fill="#BCBCBC"/>
<path d="M216.651 188.614H184.63H182.43H181.324H179.194H174.464L172.846 188.612H171.227L166.497 188.61H163.261H162.134H159.839V188.62H141.64V201.344H162.134H163.261H165.447H165.463H166.497L171.227 201.346H172.846H174.464H179.194H181.324H182.43H185.853V201.339H216.651C220.158 201.339 223 198.491 223 194.976C223 191.462 220.158 188.614 216.651 188.614Z" fill="#BCBCBC"/>
<path d="M0.187012 194.976C0.187012 198.491 3.02857 201.339 6.5356 201.339H40.5701V188.614H6.5356C3.02857 188.614 0.187012 191.462 0.187012 194.976Z" fill="#BCBCBC"/>
<path d="M179.192 122.578H174.463H172.844H171.227H166.495V144.334V147.577V152.317V153.939V155.561V160.301V163.544V185.346H171.227H172.844H174.463H179.192V163.544V160.301V155.561V153.939V152.317V147.577V144.334V122.578Z" fill="#BCBCBC"/>
<path d="M172.844 103.346H179.192V78.3859V65.6615V47.5283C179.192 44.2342 176.694 41.5243 173.493 41.1992C173.28 41.1771 173.062 41.1661 172.844 41.1661C172.626 41.1661 172.407 41.1771 172.195 41.1992C171.982 41.2212 171.771 41.2524 171.564 41.2947C171.357 41.337 171.155 41.3902 170.955 41.4509C170.856 41.4821 170.757 41.5152 170.66 41.5501C170.466 41.6217 170.275 41.7026 170.09 41.7907C169.813 41.9249 169.546 42.0792 169.293 42.25C169.124 42.3639 168.961 42.487 168.803 42.6156C168.646 42.7461 168.495 42.882 168.352 43.0272C168.281 43.0988 168.211 43.1723 168.141 43.2476C168.004 43.3983 167.876 43.5563 167.753 43.7198C167.692 43.8006 167.634 43.8851 167.575 43.9697C167.485 44.1038 167.401 44.2416 167.322 44.3812C167.25 44.508 167.181 44.6366 167.117 44.7688C166.983 45.0463 166.869 45.3365 166.776 45.636C166.59 46.2331 166.49 46.8688 166.49 47.5283V65.6615V103.348H172.838L172.844 103.346Z" fill="#BCBCBC"/>
<path d="M172.844 204.576H166.495V260.636C166.495 263.491 168.372 265.907 170.956 266.712C171.353 266.835 171.768 266.921 172.195 266.965C172.407 266.987 172.626 266.998 172.844 266.998C173.062 266.998 173.28 266.987 173.493 266.965C176.694 266.64 179.192 263.93 179.192 260.636V204.576H172.844Z" fill="#BCBCBC"/>
<path d="M132.054 62.4188H138.402V32.1308C138.402 28.6162 135.561 25.7685 132.054 25.7685C128.547 25.7685 125.705 28.6162 125.705 32.1308V62.4188H132.054Z" fill="#BCBCBC"/>
<path d="M132.054 164.37H125.705V188.614V245.238C125.705 246.333 125.982 247.362 126.466 248.262C126.482 248.292 126.499 248.321 126.515 248.351C126.6 248.503 126.691 248.652 126.787 248.795C127.927 250.487 129.859 251.601 132.052 251.601C134.732 251.601 137.024 249.934 137.955 247.581C138.241 246.855 138.4 246.065 138.4 245.238V188.614V164.37H132.052H132.054Z" fill="#BCBCBC"/>
<path d="M132.054 82.4296H130.435H125.705V103.296V106.539V111.281V112.901V114.524V119.264V122.506V144.334V144.358H130.435H132.054H133.672H138.402V144.334V122.506V119.264V114.524V112.901V111.281V106.539V103.296V82.4296H133.672H132.054Z" fill="#BCBCBC"/>
<path d="M91.104 122.532H89.4871H84.7554V144.334V147.577V152.317V153.939V155.561V160.301V163.544V185.3H89.4871H91.104H92.7228H97.4526V163.544V160.301V155.561V153.939V152.317V147.577V144.334V122.532H92.7228H91.104Z" fill="#BCBCBC"/>
<path d="M91.104 103.302H97.4526V65.6615V18.1331C97.4526 17.3652 97.3169 16.6285 97.0676 15.945C96.9961 15.7503 96.9155 15.5592 96.8275 15.3737C96.7376 15.1881 96.6405 15.0081 96.5342 14.8335C96.3857 14.5892 96.2225 14.3577 96.0447 14.1372C96.0227 14.1097 96.0007 14.0821 95.9768 14.0546C94.8127 12.6583 93.0619 11.7709 91.104 11.7709C89.6044 11.7709 88.2276 12.2927 87.1423 13.1635C87.0507 13.237 86.959 13.3142 86.871 13.3932C86.783 13.4722 86.6987 13.5512 86.6144 13.6338C85.4649 14.7858 84.7554 16.3749 84.7554 18.1331V65.6615V103.302H91.104Z" fill="#BCBCBC"/>
<path d="M91.104 204.532H84.7554V231.243C84.7554 234.757 87.597 237.605 91.104 237.605C93.2948 237.605 95.227 236.491 96.3692 234.799C96.5396 234.546 96.6936 234.28 96.8275 234C96.8715 233.908 96.9136 233.813 96.954 233.719C97.075 233.434 97.174 233.137 97.2528 232.832C97.3041 232.628 97.3481 232.422 97.3793 232.211C97.4269 231.895 97.4526 231.571 97.4526 231.243V204.532H91.104Z" fill="#BCBCBC"/>
<path d="M50.1544 163.564H43.8058V188.612V219.47C43.8058 222.984 46.6474 225.832 50.1544 225.832C50.4826 225.832 50.8052 225.806 51.1206 225.759C51.6467 225.678 52.1509 225.533 52.6257 225.332C52.8163 225.251 53.0015 225.161 53.1812 225.064C53.326 224.985 53.4671 224.899 53.6046 224.811C53.6981 224.75 53.7916 224.686 53.8815 224.62C53.9236 224.59 53.964 224.559 54.0043 224.528C55.5222 223.365 56.503 221.533 56.503 219.47V188.612V163.564H50.1544Z" fill="#BCBCBC"/>
<path d="M50.1544 62.3931H56.503V6.36222C56.503 4.71058 55.8742 3.20407 54.8439 2.0742C53.6835 0.801018 52.0115 0 50.1544 0C49.06 0 48.0315 0.277417 47.1332 0.766112C47.1186 0.77346 47.1039 0.782646 47.0892 0.791832C46.7959 0.955343 46.5172 1.1409 46.2533 1.34667C46.0553 1.50283 45.8646 1.66818 45.6849 1.84638C45.6776 1.85373 45.6703 1.85924 45.6648 1.86659C44.5153 3.01852 43.8058 4.60769 43.8058 6.36589V62.3931H50.1544Z" fill="#BCBCBC"/>
<path d="M50.1544 81.6249H48.5375H43.8058V81.6285V103.296V106.539V111.281V112.901V114.524V119.264V122.506V144.334H48.5375H50.1544H51.7732H56.503V122.506V119.264V114.524V112.901V111.281V106.539V103.296V81.6285V81.6249H51.7732H50.1544Z" fill="#BCBCBC"/>
<path d="M122.469 78.3859H125.705H130.435H132.054H133.672H138.402H141.638H142.808H163.259V73.6441V72.0237V70.4014V65.6615H142.808H141.638H138.402H133.672H132.054H130.435H125.705H122.469H121.3H100.69V70.4014V72.0237V73.6441V78.3859H121.3H122.469Z" fill="#BCBCBC"/>
<path d="M162.132 106.607V106.539H141.638V119.264H159.831V119.337H162.132H163.259H166.495H171.225L172.844 119.339H174.463L179.192 119.341H181.323H182.428H185.851V119.258H216.65C218.171 119.258 219.566 118.722 220.659 117.829C220.674 117.816 220.69 117.805 220.705 117.792C222.105 116.625 222.998 114.865 222.998 112.898C222.998 111.294 222.404 109.83 221.427 108.711C221.37 108.645 221.312 108.58 221.251 108.518C221.115 108.376 220.974 108.24 220.828 108.11C220.729 108.024 220.628 107.941 220.525 107.86C220.327 107.706 220.118 107.564 219.902 107.434C218.95 106.864 217.839 106.535 216.65 106.535H182.428V106.611H181.323H179.192H174.463L172.844 106.609H171.225L166.495 106.607H163.259H162.132Z" fill="#BCBCBC"/>
<path d="M105.733 188.614V188.568L101.202 188.566H100.69L97.4526 188.564L92.7228 188.563H91.104H89.4871L84.7554 188.561L82.011 188.559H81.5197H79.7158V188.614H59.7405V193.354V194.976V196.597V201.339H81.5197V201.291H82.011L84.7554 201.293L89.4871 201.294H91.104L92.7228 201.296L97.4526 201.298H100.69H101.202V201.339H122.469V196.597V194.976V193.354V188.614H105.733Z" fill="#BCBCBC"/>
<path d="M63.1156 160.334V160.301H81.5198V147.577H59.7406V147.6H58.5875H56.5049H51.7751L50.1563 147.599H48.5375L43.8077 147.597H40.572H39.3987V147.58H6.53561C5.54931 147.58 4.61618 147.806 3.78388 148.207C3.78204 148.207 3.78021 148.209 3.77654 148.21C3.60788 148.293 3.44289 148.381 3.2834 148.479C3.23206 148.51 3.18073 148.543 3.1294 148.574C2.85625 148.749 2.59776 148.942 2.35576 149.155C2.2531 149.245 2.15227 149.337 2.05511 149.434C2.05144 149.438 2.04778 149.441 2.04411 149.445C0.894654 150.597 0.185181 152.186 0.185181 153.944C0.185181 155.914 1.07798 157.672 2.47859 158.839C2.50059 158.857 2.52443 158.875 2.54642 158.894C3.63722 159.776 5.02316 160.307 6.53377 160.307H37.0961V160.33H39.3969H40.5701H43.8059L48.5357 160.334H50.1544H51.7732H56.503L58.5856 160.336H59.7387H63.1138L63.1156 160.334Z" fill="#BCBCBC"/>
<path d="M141.638 160.301H163.259V155.561V153.939V152.317V147.577H141.638V147.6H140.47H138.402H133.672H132.054H130.435H125.705H122.469H121.3V147.577H100.69V152.317V153.939V155.561V160.301H120.132V160.325H121.3H122.469H125.705H130.435H132.054H133.672H138.402H140.47H141.638V160.301Z" fill="#BCBCBC"/>
</g>
<defs>
<clipPath id="clip0_23_80">
<rect width="223" height="267" fill="white"/>
</clipPath>
</defs>
</svg>
