<?xml version="1.0" standalone="no"?>
<!DOCTYPE svg PUBLIC "-//W3C//DTD SVG 20010904//EN"
 "http://www.w3.org/TR/2001/REC-SVG-20010904/DTD/svg10.dtd">
<svg version="1.0" xmlns="http://www.w3.org/2000/svg"
 width="1438.000000pt" height="1438.000000pt" viewBox="0 0 1438.000000 1438.000000"
 preserveAspectRatio="xMidYMid meet">
<metadata>
Created by potrace 1.14, written by Peter Selinger 2001-2017
</metadata>
<g transform="translate(0.000000,1438.000000) scale(0.100000,-0.100000)"
fill="#000000" stroke="none">
<path d="M12820 11140 c-77 -13 -103 -18 -155 -30 -27 -6 -57 -12 -65 -14 -8
-1 -42 -10 -75 -20 -33 -10 -61 -18 -62 -17 -2 0 -18 -6 -38 -15 -19 -8 -36
-14 -37 -13 -3 0 -10 -2 -98 -32 -36 -12 -69 -25 -75 -29 -5 -4 -37 -17 -70
-30 -72 -28 -400 -186 -435 -210 -14 -9 -50 -30 -80 -47 -30 -16 -97 -55 -148
-86 -51 -32 -95 -57 -98 -57 -3 0 -18 -8 -32 -19 -15 -10 -58 -35 -95 -55
l-68 -38 -3852 5 c-2119 2 -4040 5 -4270 6 -231 0 -423 -2 -428 -5 -5 -3 -9
-13 -9 -22 0 -14 11 -17 73 -17 229 1 294 -57 252 -225 -4 -14 -8 -34 -9 -45
-1 -11 -4 -24 -7 -30 -4 -5 -9 -26 -13 -45 -3 -19 -9 -46 -12 -60 -3 -14 -7
-36 -10 -50 -2 -14 -7 -36 -10 -50 -10 -43 -12 -52 -40 -180 -14 -69 -28 -134
-30 -145 -3 -20 -52 -247 -59 -275 -3 -13 -12 -55 -57 -268 l-11 -52 -511 2
c-448 3 -511 5 -508 18 2 8 6 26 8 40 6 33 23 118 30 150 3 14 10 45 15 70 5
25 11 54 14 65 2 11 9 47 15 80 7 33 13 65 15 70 1 9 8 41 21 105 1 8 10 48
18 87 9 40 18 87 21 105 3 18 10 49 15 68 5 19 11 52 14 74 4 21 8 41 10 45 2
3 7 23 10 43 3 21 10 57 15 80 6 24 12 56 15 71 12 70 40 129 77 167 22 22 44
40 49 40 5 0 21 5 37 12 15 6 33 12 38 13 6 0 21 4 35 8 14 4 66 9 115 10 81
3 90 5 90 23 0 17 -8 19 -78 19 -42 0 -77 2 -77 5 0 6 -1251 2 -1257 -4 -2 -2
-19 0 -38 4 -19 4 -37 5 -40 2 -3 -3 -22 -6 -43 -6 -29 -1 -38 -5 -40 -21 -3
-18 3 -20 75 -21 158 -1 240 -19 272 -57 15 -19 19 -93 7 -157 -5 -25 -10 -54
-12 -65 -1 -11 -3 -20 -4 -20 -1 0 -3 -7 -5 -15 -1 -8 -8 -40 -14 -70 -6 -30
-13 -64 -15 -75 -3 -11 -9 -40 -15 -65 -5 -25 -12 -56 -15 -70 -2 -14 -9 -47
-15 -75 -6 -27 -13 -61 -15 -75 -3 -14 -13 -58 -21 -98 -9 -39 -17 -82 -19
-95 -1 -13 -5 -27 -8 -32 -3 -6 -9 -28 -13 -50 -4 -22 -9 -51 -11 -64 -3 -12
-11 -52 -20 -87 -8 -35 -13 -67 -13 -71 1 -4 -1 -15 -4 -23 -5 -14 -20 -85
-33 -156 -3 -16 -10 -47 -16 -69 -5 -22 -11 -47 -13 -55 -3 -19 -18 -94 -20
-100 -6 -21 -32 -146 -41 -195 -3 -16 -11 -58 -19 -93 -8 -34 -17 -74 -20 -90
-3 -15 -7 -40 -10 -57 -3 -16 -10 -46 -15 -65 -5 -19 -12 -53 -16 -75 -3 -22
-8 -43 -10 -46 -2 -3 -6 -19 -8 -35 -7 -39 -33 -163 -40 -194 -4 -14 -8 -36
-11 -50 -2 -14 -14 -68 -25 -120 -12 -52 -23 -106 -26 -120 -13 -69 -41 -128
-73 -160 -55 -53 -163 -84 -306 -89 -68 -2 -95 -15 -74 -36 10 -10 1558 -15
1560 -5 0 3 2 13 4 23 3 15 -4 18 -38 17 -23 0 -57 0 -75 0 -53 -1 -153 20
-178 37 -44 28 -57 79 -41 163 7 32 47 219 53 245 3 11 7 31 10 45 2 14 7 36
10 50 4 14 8 34 10 46 1 11 7 38 13 60 6 21 13 57 17 79 3 22 8 43 10 46 2 3
6 21 9 40 3 19 15 75 26 124 11 50 23 104 25 120 3 17 10 48 15 70 14 61 18
76 29 130 10 50 16 75 25 118 3 12 8 38 12 57 4 19 8 37 8 40 1 3 5 24 9 47 4
23 13 43 19 45 27 9 1022 2 1020 -7 -5 -30 -15 -81 -33 -165 -35 -166 -41
-194 -46 -220 -2 -14 -7 -32 -10 -40 -4 -8 -8 -24 -9 -35 -6 -41 -16 -90 -21
-107 -5 -18 -13 -50 -20 -88 -2 -14 -11 -56 -20 -95 -9 -38 -18 -81 -20 -95
-3 -14 -7 -33 -10 -42 -3 -10 -7 -30 -10 -45 -3 -16 -16 -77 -29 -138 -13 -60
-26 -121 -29 -135 -2 -14 -5 -25 -6 -25 -1 0 -4 -13 -6 -29 -3 -17 -13 -53
-23 -81 -52 -147 -132 -199 -326 -212 -83 -5 -101 -12 -93 -35 5 -11 147 -13
784 -12 429 1 782 2 786 3 3 0 5 9 4 19 -2 12 -13 18 -37 19 -213 11 -280 28
-313 79 -25 36 -25 85 -3 184 24 109 26 119 33 155 3 17 12 59 19 95 8 36 17
76 19 90 3 14 5 25 6 25 1 0 3 9 4 20 3 16 26 125 61 290 10 43 37 177 41 203
3 15 9 44 15 65 6 21 12 50 15 65 2 15 11 59 19 97 9 39 17 79 19 90 2 11 7
36 11 55 4 19 9 44 10 55 2 11 4 21 5 23 3 2 4 5 13 52 4 19 9 46 12 60 3 14
8 39 10 56 3 17 9 42 14 55 5 13 9 27 9 32 3 32 16 104 20 112 3 5 7 16 8 25
1 16 20 109 29 150 7 30 13 61 19 95 3 14 7 33 10 43 3 9 7 28 10 42 9 44 35
174 41 200 3 14 8 36 10 50 19 108 60 271 78 309 35 74 89 119 167 137 19 4
1638 8 3598 9 3406 0 3562 -1 3542 -17 -12 -10 -28 -18 -36 -18 -8 0 -14 -3
-14 -7 0 -5 -10 -13 -23 -19 -12 -5 -83 -45 -157 -89 -74 -43 -148 -86 -165
-95 -55 -31 -427 -245 -635 -365 -113 -65 -218 -126 -235 -134 -16 -9 -32 -18
-35 -21 -8 -8 -62 -40 -100 -58 -19 -9 -37 -20 -40 -23 -3 -3 -27 -18 -55 -33
-27 -16 -70 -40 -95 -54 -25 -14 -54 -30 -65 -36 -11 -6 -22 -13 -25 -16 -3
-3 -18 -12 -35 -20 -16 -8 -32 -17 -35 -20 -3 -3 -19 -12 -35 -21 -17 -9 -106
-60 -200 -114 -93 -54 -183 -106 -198 -114 -16 -9 -36 -20 -45 -26 -16 -9
-154 -89 -247 -143 -22 -12 -48 -25 -57 -29 -10 -3 -18 -9 -18 -14 0 -5 -5 -9
-11 -9 -6 0 -47 -22 -92 -49 -169 -102 -1007 -581 -1016 -581 -5 0 -11 -4 -13
-8 -3 -7 -73 -49 -153 -92 -16 -9 -73 -42 -127 -73 -53 -31 -101 -57 -106 -57
-6 0 -12 -3 -14 -8 -2 -6 -147 -91 -338 -199 -158 -90 -380 -219 -402 -235
-16 -11 -28 -16 -28 -12 0 4 -8 0 -17 -8 -10 -8 -61 -39 -113 -69 -52 -30
-104 -59 -115 -66 -11 -7 -27 -16 -35 -20 -14 -7 -149 -84 -180 -103 -8 -5
-58 -33 -110 -63 -52 -30 -210 -121 -350 -202 -140 -81 -275 -159 -299 -173
-91 -51 -146 -83 -161 -92 -59 -36 -210 -119 -226 -124 -10 -3 -44 -8 -75 -11
-31 -3 -67 -8 -80 -10 -29 -6 -146 -19 -176 -19 -13 -1 -23 -4 -23 -9 0 -4 -3
-6 -7 -5 -8 2 -127 -11 -172 -18 -14 -3 -51 -9 -81 -14 -30 -5 -77 -12 -105
-16 -27 -3 -59 -8 -70 -10 -83 -16 -144 -27 -165 -29 -21 -2 -153 -26 -285
-50 -179 -33 -422 -81 -560 -111 -93 -20 -181 -38 -195 -40 -14 -2 -52 -10
-85 -19 -33 -9 -69 -17 -80 -19 -11 -2 -20 -4 -20 -5 0 -1 -11 -4 -25 -6 -14
-2 -47 -9 -75 -15 -27 -6 -57 -13 -65 -15 -52 -11 -363 -87 -373 -90 -6 -2
-23 -7 -37 -10 -14 -2 -52 -12 -85 -20 -33 -9 -69 -18 -80 -20 -11 -2 -90 -24
-175 -50 -85 -26 -175 -52 -200 -60 -49 -14 -272 -94 -335 -120 -68 -27 -79
-32 -105 -43 -23 -9 -295 -143 -341 -167 -11 -5 -19 -13 -19 -17 0 -5 -5 -8
-12 -8 -6 0 -26 -11 -43 -25 -18 -13 -35 -21 -39 -18 -3 4 -6 2 -6 -4 0 -5
-21 -24 -48 -40 -54 -36 -205 -179 -249 -238 -46 -61 -92 -158 -109 -232 -15
-67 -15 -207 0 -232 4 -6 10 -24 12 -39 7 -38 55 -142 65 -142 5 0 9 -6 9 -14
0 -42 217 -276 328 -355 32 -23 33 -24 15 -44 -13 -15 -13 -18 -2 -9 9 6 19 9
22 5 4 -3 7 -1 7 6 0 10 43 -11 60 -29 8 -9 112 -75 140 -90 14 -7 27 -16 30
-19 10 -12 190 -104 208 -107 8 -2 22 -10 31 -18 10 -9 21 -16 25 -16 4 0 27
-9 52 -20 88 -40 153 -67 244 -101 19 -8 37 -14 40 -15 3 0 18 -6 33 -12 16
-7 30 -12 32 -12 2 0 16 -5 32 -12 15 -6 30 -12 33 -13 3 -1 25 -8 50 -15 25
-7 47 -14 50 -15 3 -1 12 -4 20 -8 20 -8 83 -27 106 -32 10 -2 53 -14 94 -25
41 -11 86 -23 100 -26 14 -3 39 -9 55 -14 61 -19 400 -91 500 -106 17 -3 39
-7 50 -9 22 -3 143 -23 190 -30 36 -6 85 -13 180 -25 39 -4 93 -12 120 -16 28
-4 66 -8 85 -9 19 -2 35 -4 35 -5 0 0 20 -3 45 -5 45 -4 137 -12 220 -20 202
-20 514 -38 825 -49 94 -4 213 -8 265 -11 118 -5 525 -7 1081 -6 386 1 427 3
433 17 4 9 5 18 4 20 -2 1 -46 5 -98 8 -150 9 -175 16 -209 65 -23 32 -23 88
-1 171 7 25 14 54 16 65 5 29 13 71 20 103 4 15 8 36 9 47 2 11 4 20 5 20 1 0
3 7 5 15 1 8 8 42 15 75 7 33 14 67 15 75 2 8 4 15 5 15 2 0 5 14 13 60 12 62
18 90 23 107 3 10 7 30 10 45 2 16 11 60 20 98 9 39 18 81 20 94 3 13 12 54
20 90 18 84 22 100 29 134 5 29 11 56 21 97 5 22 13 67 17 95 1 6 5 12 9 15 3
3 224 5 490 5 473 -1 483 -1 482 -20 -3 -35 -15 -109 -21 -117 -2 -5 -7 -20
-9 -35 -3 -15 -12 -59 -20 -98 -9 -38 -18 -81 -20 -95 -3 -14 -11 -53 -19 -86
-8 -34 -16 -73 -19 -85 -2 -13 -10 -46 -16 -74 -6 -27 -13 -59 -16 -70 -2 -11
-9 -45 -15 -75 -6 -30 -12 -59 -13 -65 -1 -5 -5 -19 -9 -30 -3 -11 -9 -36 -11
-55 -12 -79 -87 -395 -103 -428 -45 -95 -152 -151 -301 -157 -79 -3 -88 -6
-79 -30 6 -13 89 -15 747 -15 658 0 741 2 747 15 9 24 1 27 -89 30 -105 3
-154 12 -199 37 -37 21 -66 68 -63 103 3 37 15 99 29 155 7 30 16 73 20 95 3
22 10 56 15 75 9 35 14 60 25 115 4 26 18 90 41 195 6 31 12 58 18 90 2 14 12
59 21 100 9 41 18 86 21 100 2 14 7 36 10 50 3 14 8 36 11 50 2 14 13 63 23
110 20 88 21 95 40 195 13 65 14 68 23 105 8 32 96 455 103 495 2 16 7 38 10
47 3 9 7 27 9 40 4 20 48 233 61 293 8 34 25 119 30 145 43 217 138 287 399
294 52 1 60 4 63 22 3 20 0 20 -743 20 -700 -1 -747 -2 -756 -18 -11 -21 -15
-20 76 -23 39 -1 90 -6 115 -10 25 -5 48 -8 51 -7 4 0 21 -12 39 -28 45 -40
48 -86 16 -225 -15 -60 -28 -123 -31 -138 -2 -16 -14 -72 -26 -125 -12 -53
-23 -107 -24 -119 -2 -12 -5 -26 -8 -30 -3 -5 -8 -28 -12 -53 -4 -25 -8 -47
-10 -50 -2 -3 -6 -21 -9 -40 -3 -19 -8 -44 -10 -55 -2 -11 -14 -65 -26 -120
-12 -55 -24 -109 -26 -120 -2 -11 -6 -31 -9 -45 -4 -14 -8 -36 -11 -50 -3 -14
-7 -32 -9 -40 -3 -8 -7 -33 -11 -55 -3 -22 -10 -42 -14 -45 -4 -3 -223 -5
-487 -5 l-478 1 2 24 c2 31 11 76 29 160 8 36 16 78 19 94 2 15 7 35 9 45 7
20 18 82 19 99 0 6 3 12 6 12 3 0 6 10 7 23 0 12 3 36 7 52 3 17 9 44 12 60 3
17 22 107 41 200 19 94 36 181 39 194 8 47 34 168 39 186 2 6 6 24 11 40 11
43 61 103 104 124 47 24 139 43 224 46 72 2 83 6 74 28 -4 12 -125 14 -750 14
-715 0 -746 -1 -750 -19 -6 -21 -12 -20 88 -23 236 -6 280 -42 250 -205 -6
-33 -39 -199 -51 -251 -5 -25 -9 -45 -18 -89 -3 -14 -7 -34 -9 -45 -3 -11 -12
-54 -21 -95 -9 -41 -25 -118 -37 -170 -11 -52 -29 -138 -40 -190 -10 -52 -28
-138 -39 -190 -11 -52 -23 -106 -25 -120 -3 -14 -8 -36 -11 -50 -8 -32 -13
-58 -19 -92 -5 -25 -30 -142 -39 -178 -2 -8 -7 -35 -12 -60 -9 -51 -11 -59
-14 -62 -1 -2 -3 -12 -5 -23 -1 -11 -10 -51 -18 -90 -8 -38 -18 -84 -20 -102
-3 -17 -7 -36 -10 -40 -3 -5 -8 -28 -12 -53 -4 -25 -8 -47 -10 -50 -3 -5 -13
-57 -20 -105 -2 -11 -4 -21 -5 -22 -3 -3 -3 -6 -14 -58 -4 -22 -10 -51 -13
-65 -3 -14 -6 -33 -7 -42 0 -10 -4 -18 -9 -18 -4 0 -6 -4 -3 -8 5 -8 2 -22
-35 -177 -32 -133 -69 -179 -167 -211 -47 -15 -84 -18 -212 -15 -85 1 -210 3
-277 4 -68 1 -123 4 -123 7 0 3 -44 6 -98 6 -155 2 -458 21 -647 40 -33 3 -78
7 -100 9 -91 7 -201 17 -220 21 -11 3 -47 7 -80 10 -33 4 -67 7 -75 9 -8 1
-42 5 -75 9 -33 4 -71 10 -85 12 -14 3 -43 7 -65 9 -22 3 -51 8 -65 11 -14 3
-41 8 -60 10 -34 5 -51 8 -100 19 -14 3 -44 7 -68 10 -23 2 -46 6 -50 9 -4 2
-23 7 -42 10 -30 4 -117 23 -270 56 -19 4 -64 15 -100 25 -36 9 -74 19 -85 21
-57 11 -431 129 -495 157 -25 10 -52 20 -60 22 -28 6 -252 105 -359 159 -126
63 -171 88 -229 127 -24 16 -45 29 -48 29 -10 0 -69 45 -82 63 -7 9 -20 17
-28 17 -9 0 -21 6 -28 13 -7 6 -28 23 -47 37 -41 30 -229 212 -229 222 0 4
-10 18 -23 31 -37 41 -98 165 -116 236 -17 66 -20 156 -7 221 10 53 73 179
114 230 49 60 149 160 161 160 5 0 11 4 13 8 4 12 146 112 158 112 6 0 10 4
10 9 0 5 10 13 23 17 12 4 24 10 27 14 4 7 206 112 220 115 3 1 28 12 55 25
28 12 56 23 63 23 6 0 12 3 12 7 0 4 20 13 45 20 25 7 45 17 45 23 0 6 2 8 6
5 3 -3 28 3 57 14 136 53 469 160 537 173 8 2 15 4 15 5 0 1 7 3 15 5 26 5
412 102 440 110 10 2 65 15 88 20 12 3 32 7 45 11 57 14 73 17 90 18 9 0 17 3
17 7 0 4 8 6 18 4 9 -1 22 0 27 4 6 3 15 6 20 7 6 1 44 10 85 19 103 23 160
35 190 40 14 2 26 4 28 6 4 3 106 25 155 33 15 3 35 7 45 10 16 5 35 9 100 21
15 3 52 10 82 16 30 7 62 13 70 14 8 2 15 4 15 5 0 1 9 3 20 4 57 9 115 18
153 27 23 5 59 12 78 15 38 6 63 10 104 19 14 3 41 7 60 9 19 3 49 8 65 11 53
10 79 15 115 21 19 3 60 9 90 14 30 5 71 12 90 14 19 3 46 7 60 10 14 2 48 8
75 11 28 4 61 9 75 11 14 2 39 6 55 8 17 2 46 7 66 11 20 3 51 7 70 9 19 2 63
7 99 11 l65 7 -114 -66 c-62 -36 -117 -66 -122 -66 -5 0 -9 -4 -9 -9 0 -5 -10
-13 -22 -17 -13 -4 -47 -22 -75 -40 -29 -19 -53 -30 -53 -26 0 4 -4 2 -8 -3
-6 -10 -117 -76 -207 -124 -16 -9 -59 -34 -95 -54 -36 -21 -72 -42 -80 -47 -8
-5 -98 -57 -200 -116 -102 -59 -205 -118 -230 -132 -25 -14 -61 -35 -80 -47
-19 -12 -42 -25 -50 -28 -8 -4 -37 -21 -65 -37 -27 -17 -57 -34 -65 -37 -8 -4
-17 -9 -20 -12 -3 -4 -16 -12 -30 -19 -35 -18 -71 -39 -173 -100 -49 -28 -91
-52 -93 -52 -3 0 -118 -67 -154 -90 -8 -5 -35 -21 -60 -34 -25 -13 -81 -45
-125 -71 -44 -27 -96 -57 -115 -68 -19 -10 -65 -37 -102 -58 -36 -22 -71 -39
-77 -39 -6 0 -11 -3 -11 -7 0 -5 -10 -13 -23 -19 -44 -21 -122 -67 -138 -80
-8 -8 -19 -14 -23 -14 -4 0 -45 -22 -92 -50 -47 -27 -89 -50 -94 -50 -6 0 -10
-4 -10 -10 0 -5 -4 -10 -8 -10 -5 0 -123 -66 -263 -147 -140 -80 -272 -156
-294 -167 -21 -12 -45 -27 -53 -33 -7 -7 -19 -13 -26 -13 -7 0 -21 -8 -32 -17
-11 -10 -38 -27 -60 -39 -71 -37 -129 -69 -134 -74 -3 -3 -65 -39 -137 -80
-73 -41 -133 -78 -133 -82 0 -11 24 0 230 100 183 89 364 177 695 337 94 45
254 123 357 174 103 50 191 91 196 91 4 0 14 6 20 13 7 6 16 12 20 12 4 1 70
32 147 69 205 100 497 243 680 331 88 43 218 106 290 141 71 35 135 64 142 64
7 0 13 5 13 10 0 6 4 10 9 10 5 0 107 48 228 106 414 202 589 287 748 364 88
43 237 115 330 161 94 45 172 83 175 84 3 1 86 41 185 89 497 244 478 235 557
241 96 7 207 15 288 19 36 2 115 6 175 10 380 22 638 30 1330 41 833 13 1288
29 1485 51 19 2 69 6 110 8 42 3 90 7 108 11 17 3 55 7 84 10 29 3 64 7 78 9
14 3 48 7 75 11 28 3 64 8 80 10 17 3 46 7 65 9 19 3 46 7 60 10 14 3 41 9 60
12 19 4 44 9 55 11 11 2 31 6 45 8 33 5 165 33 215 47 22 5 49 12 60 14 11 2
50 12 88 23 37 11 67 17 67 14 0 -3 6 -1 13 5 6 5 28 13 47 17 53 11 394 126
404 136 6 5 16 9 23 9 23 0 306 121 482 206 95 46 175 84 178 84 3 0 16 9 30
20 14 11 34 20 44 20 9 0 19 4 21 8 2 5 32 24 68 42 36 19 73 40 83 48 9 9 17
11 17 6 0 -5 4 -4 8 1 4 6 30 24 57 39 28 16 139 83 247 150 109 67 207 125
218 131 11 5 20 13 20 17 0 5 5 8 10 8 6 0 23 9 38 19 15 10 101 67 192 127
91 59 167 110 170 114 3 3 23 17 45 30 22 13 45 29 51 35 6 5 22 17 34 25 32
21 292 212 306 225 6 5 46 37 88 69 42 33 76 62 76 66 0 4 9 11 19 16 23 11
144 117 256 224 135 129 256 270 331 385 21 33 41 62 45 65 11 10 71 144 85
190 12 41 24 109 27 160 5 70 -57 260 -84 260 -5 0 -9 5 -9 11 0 12 -108 119
-120 119 -4 0 -20 11 -36 25 -16 14 -44 31 -61 37 -18 7 -33 16 -33 20 0 4 -4
8 -10 8 -5 0 -35 12 -67 26 -56 26 -222 84 -253 89 -8 1 -22 5 -30 8 -8 3 -42
11 -75 18 -33 7 -62 13 -65 14 -3 1 -29 5 -58 10 -29 4 -55 11 -57 15 -3 4 12
20 33 36 51 39 242 229 242 242 0 6 4 12 8 14 14 5 77 99 106 156 34 68 45
166 23 208 -25 48 -71 84 -128 101 -59 18 -254 25 -329 13z m70 -834 c8 -1 29
-5 45 -9 17 -4 42 -9 58 -12 73 -14 138 -30 222 -56 22 -7 42 -13 45 -14 47
-10 234 -97 264 -124 10 -9 20 -14 23 -12 3 2 32 -20 65 -49 65 -58 125 -142
141 -199 21 -78 15 -212 -12 -276 -5 -11 -19 -45 -32 -75 -13 -30 -29 -62 -36
-71 -7 -8 -13 -19 -13 -23 0 -8 -59 -97 -70 -106 -3 -3 -17 -21 -30 -40 -58
-86 -241 -279 -385 -405 -106 -94 -108 -95 -144 -123 -19 -15 -39 -32 -45 -37
-6 -6 -42 -35 -81 -65 -38 -30 -71 -58 -73 -62 -2 -5 -10 -8 -18 -8 -8 0 -14
-3 -14 -7 0 -5 -17 -19 -37 -33 -20 -14 -41 -30 -47 -36 -6 -6 -24 -19 -41
-29 -16 -11 -55 -38 -85 -61 -30 -23 -147 -102 -260 -177 -113 -75 -217 -145
-232 -157 -14 -11 -29 -20 -33 -20 -4 0 -21 -10 -38 -22 -35 -26 -57 -39 -104
-63 -18 -10 -33 -21 -33 -26 0 -5 -5 -9 -10 -9 -10 0 -86 -45 -197 -117 -28
-18 -54 -33 -58 -33 -4 0 -19 -8 -33 -19 -28 -19 -96 -58 -167 -95 -22 -12
-41 -24 -43 -28 -2 -5 -8 -8 -12 -8 -5 0 -32 -13 -60 -30 -27 -16 -50 -27 -50
-24 0 3 -12 -3 -27 -13 -25 -17 -201 -106 -213 -108 -3 -1 -34 -15 -70 -32
-134 -63 -206 -94 -222 -96 -10 -1 -18 -4 -18 -8 0 -6 -11 -11 -55 -24 -5 -2
-28 -11 -50 -20 -42 -18 -309 -114 -335 -120 -8 -2 -87 -24 -174 -49 -88 -26
-173 -49 -189 -52 -17 -2 -33 -7 -37 -9 -4 -2 -22 -7 -41 -10 -19 -3 -41 -8
-49 -10 -8 -2 -26 -6 -40 -9 -14 -3 -34 -7 -45 -9 -25 -6 -102 -19 -112 -19
-5 0 -18 -4 -31 -9 -13 -5 -42 -11 -65 -13 -23 -3 -55 -7 -72 -10 -16 -3 -48
-8 -70 -10 -22 -3 -50 -8 -62 -10 -12 -3 -50 -7 -85 -11 -35 -3 -74 -8 -88
-10 -14 -2 -54 -7 -90 -10 -36 -3 -85 -8 -110 -10 -197 -19 -412 -31 -745 -41
-115 -3 -213 -8 -217 -10 -4 -2 -9 0 -13 6 -4 6 -12 7 -18 3 -6 -4 -92 -8
-192 -9 -872 -12 -1390 -26 -1755 -49 -41 -2 -127 -7 -190 -11 -62 -3 -122 -7
-132 -9 -10 -2 -18 -2 -18 0 0 2 53 29 118 61 64 31 190 92 278 135 89 44 165
79 170 79 4 0 15 6 23 13 9 7 50 28 91 47 41 18 77 37 78 42 2 4 9 8 16 8 7 0
71 29 142 63 71 35 144 70 162 78 17 8 32 18 32 22 0 5 4 6 9 2 5 -3 12 -1 16
5 3 5 13 10 21 10 9 0 22 7 30 15 9 8 24 15 35 15 10 0 19 3 19 8 0 6 53 35
70 37 3 1 113 54 244 118 131 64 243 117 247 117 5 0 9 5 9 12 0 6 3 9 6 6 3
-4 49 15 102 42 130 65 483 236 662 321 80 38 152 74 160 79 8 6 26 15 40 21
25 10 111 52 505 244 355 173 430 209 437 210 4 0 13 6 19 13 7 6 16 12 20 12
7 0 302 142 599 288 85 42 158 75 163 74 4 -1 7 2 7 8 0 5 5 10 10 10 6 0 90
39 188 86 97 48 254 124 347 169 94 45 226 110 296 144 69 33 130 61 137 61 7
0 12 3 12 8 0 4 15 13 33 21 17 8 123 59 234 113 112 54 207 98 213 98 5 0 10
5 10 10 0 6 6 10 12 10 7 0 62 24 123 54 60 30 180 88 266 129 86 41 186 93
224 116 37 23 69 41 72 41 7 0 206 122 213 130 3 4 21 15 39 26 19 10 42 24
50 31 9 7 48 35 86 63 73 53 70 52 165 36z"/>
<path d="M5457 9704 c-1 -1 -36 -4 -77 -7 -104 -8 -152 -16 -280 -46 -61 -14
-189 -62 -262 -98 -222 -108 -398 -262 -537 -471 -64 -96 -153 -274 -166 -332
-2 -8 -13 -42 -25 -75 -12 -33 -23 -73 -26 -90 -5 -37 -12 -70 -14 -70 -8 0
-33 -225 -33 -300 0 -426 168 -709 503 -848 92 -39 242 -76 326 -81 22 -2 45
-5 50 -8 10 -6 334 -1 379 5 91 14 119 19 141 27 13 5 24 8 24 6 0 -6 141 49
183 70 128 66 240 169 294 272 49 92 48 232 -1 296 -46 60 -60 54 -90 -37 -29
-87 -104 -250 -117 -255 -5 -2 -9 -8 -9 -14 0 -15 -82 -126 -125 -170 -66 -67
-172 -127 -257 -144 -18 -4 -73 -7 -123 -8 -76 0 -99 4 -147 26 -104 48 -181
152 -222 298 -23 81 -27 103 -40 224 -4 32 -9 63 -12 67 -3 5 -1 9 5 9 6 0 7
11 2 28 -8 27 -5 359 3 397 2 11 5 22 5 25 1 3 79 5 174 6 94 1 199 4 232 7
146 15 173 19 213 31 9 3 33 7 53 10 20 3 47 10 60 15 13 5 27 9 32 9 21 2
152 47 155 54 2 4 10 8 19 8 21 0 160 70 228 115 54 36 155 129 200 185 25 31
80 145 90 185 16 68 18 83 19 145 1 156 -38 262 -129 352 -78 77 -225 149
-338 164 -23 3 -55 8 -72 10 -31 5 -283 12 -288 8z m-7 -68 c30 -5 128 -76
106 -76 -5 0 -3 -6 3 -14 42 -50 45 -302 6 -472 -67 -293 -251 -521 -481 -598
-60 -20 -125 -29 -209 -30 -58 -1 -60 0 -58 24 2 27 18 128 27 170 3 14 8 39
11 55 59 307 181 636 293 792 42 58 123 131 155 137 7 2 19 6 27 9 37 15 55
15 120 3z"/>
<path d="M12277 5634 c-1 -1 -27 -4 -57 -8 -295 -33 -475 -168 -629 -471 -21
-42 -42 -72 -45 -66 -4 6 -5 15 -2 20 3 5 8 30 10 57 3 27 7 60 10 74 3 14 9
59 15 100 6 41 14 98 18 125 4 28 7 66 7 85 l1 35 -515 0 c-508 0 -515 0 -515
-20 0 -17 7 -20 55 -21 67 -1 149 -13 172 -25 43 -23 61 -124 38 -209 -5 -19
-12 -55 -15 -80 -8 -66 -11 -83 -18 -105 -3 -11 -8 -31 -11 -45 -5 -27 -22
-110 -31 -150 -3 -14 -8 -38 -11 -55 -2 -16 -10 -48 -16 -70 -5 -22 -11 -49
-13 -60 -1 -11 -5 -31 -9 -45 -3 -14 -8 -36 -10 -50 -3 -14 -7 -34 -9 -45 -3
-11 -12 -54 -21 -95 -8 -41 -25 -120 -37 -175 -11 -55 -23 -111 -25 -125 -3
-14 -9 -42 -15 -63 -6 -21 -12 -50 -14 -65 -1 -15 -8 -47 -15 -70 -6 -24 -13
-55 -15 -70 -3 -15 -6 -34 -8 -42 -6 -28 -23 -107 -82 -390 -2 -8 -8 -35 -14
-60 -5 -25 -12 -57 -15 -71 l-4 -27 359 0 359 -1 9 37 c5 20 17 64 26 97 9 33
18 71 20 85 2 14 7 36 11 50 3 14 8 36 11 50 2 14 7 32 10 40 3 8 8 24 10 35
2 11 24 106 49 210 25 105 47 197 49 205 1 8 8 33 13 55 6 22 13 51 16 65 8
38 12 58 35 145 11 44 22 91 25 105 2 14 14 63 26 110 24 95 22 88 39 150 8
25 14 50 16 55 3 12 7 23 58 155 22 58 46 112 54 121 7 8 13 23 13 32 0 9 5
17 10 17 6 0 10 6 10 13 1 30 147 217 170 217 5 0 10 4 10 9 0 16 79 51 129
57 125 15 173 -85 147 -306 -4 -36 -10 -85 -13 -110 -8 -77 -11 -94 -17 -127
-8 -42 -31 -141 -62 -273 -14 -58 -28 -116 -30 -129 -3 -13 -25 -106 -49 -206
-24 -101 -46 -196 -49 -212 -2 -15 -5 -29 -6 -30 -3 -4 -5 -12 -14 -63 -5 -25
-10 -54 -12 -65 -12 -54 -25 -123 -29 -150 -3 -16 -10 -52 -15 -80 -6 -27 -13
-70 -16 -95 -10 -69 -12 -85 -14 -85 -2 0 -4 -21 -14 -116 l-7 -66 370 1 c203
1 371 3 374 6 3 3 8 42 11 87 4 45 8 90 10 100 2 10 7 50 10 88 4 39 9 81 11
95 2 14 6 48 9 75 4 28 11 73 16 100 5 28 11 64 14 80 2 17 5 30 6 30 1 0 3
11 5 25 2 14 15 72 30 130 15 57 28 109 30 115 2 9 13 65 21 105 1 8 14 62 28
120 14 58 27 117 30 132 3 15 7 31 10 36 3 5 7 22 10 38 3 16 17 63 31 104 14
41 28 86 31 100 3 13 9 29 13 35 4 5 16 33 26 60 44 123 151 301 228 379 50
50 122 87 174 89 46 2 99 -19 107 -41 27 -78 33 -109 34 -187 0 -50 -3 -110
-8 -135 -5 -25 -11 -65 -14 -90 -3 -25 -8 -56 -11 -70 -3 -14 -7 -38 -10 -55
-7 -54 -40 -199 -105 -470 -16 -66 -31 -131 -34 -145 -3 -14 -10 -45 -17 -70
-6 -25 -12 -54 -14 -65 -3 -20 -21 -120 -30 -165 -24 -116 -24 -292 -1 -371
18 -62 58 -128 104 -175 34 -34 135 -91 173 -98 13 -3 25 -5 27 -7 11 -9 123
-22 206 -24 78 -1 129 3 226 20 115 19 203 60 330 153 106 78 150 124 139 145
-9 15 -13 14 -42 -12 -93 -85 -140 -118 -212 -151 -68 -31 -163 -32 -202 -3
-39 28 -61 70 -69 128 -8 59 -8 53 0 135 7 68 12 98 22 140 3 14 7 37 8 53 0
15 5 27 10 27 5 0 7 3 4 6 -4 3 -2 20 3 37 5 18 12 46 14 62 7 39 43 209 56
260 5 22 11 49 14 60 2 11 20 97 40 190 20 94 38 181 40 195 2 14 6 35 9 46 2
12 7 39 11 60 4 22 9 48 11 59 51 279 21 460 -97 578 -54 54 -156 113 -199
115 -8 0 -40 5 -70 9 -87 13 -238 7 -330 -14 -65 -14 -188 -62 -214 -84 -6 -5
-34 -27 -63 -50 -29 -22 -70 -63 -92 -92 -23 -29 -44 -56 -49 -62 -19 -24 -70
-115 -95 -170 -54 -117 -59 -117 -62 0 -3 93 -10 148 -20 165 -3 6 -8 20 -10
32 -7 32 -47 111 -62 121 -7 4 -13 13 -13 18 0 12 -49 55 -91 81 -40 24 -116
48 -174 55 -53 5 -164 10 -168 7z"/>
<path d="M9498 5625 c-2 -2 -34 -5 -73 -9 -88 -7 -118 -12 -180 -26 -27 -7
-61 -14 -75 -17 -38 -7 -43 -9 -73 -21 -16 -7 -33 -12 -39 -12 -5 0 -22 -6
-36 -14 -15 -7 -63 -30 -107 -51 -160 -75 -298 -183 -433 -340 -70 -81 -171
-262 -217 -389 -15 -39 -29 -78 -33 -86 -3 -8 -6 -19 -7 -25 -1 -5 -4 -20 -9
-32 -7 -23 -7 -23 -31 -132 -43 -199 -33 -449 24 -618 55 -163 144 -282 284
-377 37 -25 70 -46 73 -46 3 0 30 -11 60 -25 47 -22 171 -59 229 -70 87 -15
133 -18 305 -18 162 0 212 3 296 21 96 21 233 74 299 117 152 98 245 233 247
360 2 95 -15 141 -64 169 -27 16 -28 16 -34 -1 -3 -10 -10 -27 -14 -38 -8 -19
-22 -65 -23 -75 -1 -3 -20 -44 -44 -93 -107 -218 -219 -339 -361 -389 -71 -25
-83 -27 -152 -30 -239 -8 -368 141 -415 478 -4 30 -16 224 -17 279 -1 52 12
259 17 263 3 3 78 7 167 8 89 1 185 5 212 9 28 3 71 8 96 11 275 29 599 163
745 309 80 80 148 187 160 253 2 9 4 17 5 17 6 0 12 53 15 127 4 118 -31 245
-81 295 -7 8 -17 20 -21 26 -27 43 -159 123 -248 151 -46 14 -67 19 -150 32
-31 5 -293 13 -297 9z m61 -94 c62 -49 76 -99 75 -261 0 -74 -3 -151 -7 -170
-13 -73 -18 -90 -28 -117 -6 -16 -10 -30 -10 -33 3 -23 -72 -187 -113 -244
-59 -84 -195 -206 -231 -206 -8 0 -15 -4 -15 -9 0 -11 -107 -48 -160 -56 -33
-5 -142 -9 -166 -6 -8 1 -7 21 2 69 7 37 16 89 19 117 4 27 9 53 11 57 3 5 7
21 10 36 16 91 109 409 125 426 5 6 9 15 9 22 0 21 82 187 118 239 44 64 114
129 166 153 63 30 145 23 195 -17z"/>
</g>
</svg>
